<svg width="1920" height="39" xmlns="http://www.w3.org/2000/svg">

 <g>
  <title>background</title>
  <rect fill="none" id="canvas_background" height="402" width="582" y="-1" x="-1"/>
 </g>
 <g>
  <title>Layer 1</title>
  <path id="svg_1" d="m1877.759,23.791l-3.298,-3.287l5.508,-5.477l-11.004,0l5.496,5.477l-3.305,3.287l-81.714,0l-4.693,4.693l-9.247,9.22l-6.165,-6.145l-31.248,0.136l-5.009,0l-12.658,-12.616l-33.632,0l-7.238,7.214l-293.262,-0.038l-5.77,-5.747l-8.649,8.624l-2.891,-2.877l-165.161,0.038l-12.761,12.703l-24.051,-23.969l-0.007,0.011l-0.011,-0.011l-9.053,9.022l-3.842,0l-2.1,-2.093l3.336,-3.313l-6.656,0l3.32,3.313l-2.061,2.051l-77.933,0.033l0,0.009l-11,-0.005l-11,0.005l0,-0.009l-77.933,-0.033l-2.062,-2.051l3.321,-3.313l-6.656,0l3.335,3.313l-2.099,2.093l-3.842,0l-9.052,-9.022l-0.012,0.011l-0.007,-0.011l-24.051,23.969l-12.761,-12.703l-100.161,-0.038l-2.891,2.877l-8.649,-8.624l-5.77,5.747l-139.262,0.038l-7.239,-7.214l-33.631,0l-12.659,12.616l-5.009,0l-31.247,-0.136l-6.166,6.145l-9.246,-9.22l-4.694,-4.693l-81.713,0l-3.305,-3.287l5.496,-5.477l-11.004,0l5.508,5.477l-3.298,3.287l-258.603,0l-9.171,-8.764l-0.018,0.022l-0.023,-0.022l-15.968,16.668l-12.921,0l-7.653,-7.646l-158.883,0l0,-24.061l1919.997,0l0,24.061l-42.239,-0.258zm-1649.135,-8.764l-1.735,0l0,5.178l1.735,0l0,-5.178zm2.624,0l-1.73,0l0,5.178l1.73,0l0,-5.178zm12.122,0l-1.73,0l0,5.178l1.73,0l0,-5.178zm20.798,0l-5.195,0l0,5.178l5.195,0l0,-5.178zm320.507,9.962l-1.734,0l0,1.725l1.734,0l0,-1.725zm6.641,-3.453l-1.734,0l0,5.178l1.734,0l0,-5.178zm13.435,0l-1.734,0l0,1.724l1.734,0l0,-1.724zm0,3.453l-1.734,0l0,1.725l1.734,0l0,-1.725zm1133.232,-3.453l-1.734,0l0,1.724l1.734,0l0,-1.724zm0,3.453l-1.734,0l0,1.725l1.734,0l0,-1.725zm13.435,-3.453l-1.735,0l0,5.178l1.735,0l0,-5.178zm6.641,3.453l-1.735,0l0,1.725l1.735,0l0,-1.725zm119.726,-1.171l-6.656,0l0.027,-0.027l6.603,0l0.026,0.027zm-510.007,9.393l4.093,-4.079l4.104,4.079l-8.197,0zm-897.907,-9.393l-6.657,0l0.027,-0.027l6.603,0l0.027,0.027z" fill="rgb(0, 0, 0)" fill-rule="evenodd"/>
  <text xml:space="preserve" text-anchor="start" font-family="Helvetica, Arial, sans-serif" font-size="24" id="svg_2" y="-28.886586" x="50.999861" stroke-width="0" stroke="#000" fill="#000000">ww</text>
  <text stroke="null" transform="matrix(0.21040861462478833,0,0,0.24709738771196396,152.08177195886708,20.163245179854336) " xml:space="preserve" text-anchor="start" font-family="'Trebuchet MS', Gadget, sans-serif" font-size="24" id="svg_5" y="42.660205" x="8220.53729" fill-opacity="null" stroke-opacity="null" stroke-width="12" fill="#000000">R 1-NC9020815-2</text>
  <text stroke="null" transform="matrix(0.1477660339620499,0,0,0.1617783421817187,27.72549684150376,20.57532776060131) " font-weight="bold" xml:space="preserve" text-anchor="start" font-family="'Courier New', Courier, monospace" font-size="22" id="svg_6" y="41.113222" x="-159.475661" fill-opacity="null" stroke-opacity="null" stroke-width="0" fill="#000000">R0231-2150-772 Connected::</text>
 </g>
</svg>